<?xml version="1.0" encoding="utf-8"?>
<!-- Generator: Adobe Illustrator 17.1.0, SVG Export Plug-In . SVG Version: 6.00 Build 0)  -->
<!DOCTYPE svg PUBLIC "-//W3C//DTD SVG 1.1//EN" "http://www.w3.org/Graphics/SVG/1.1/DTD/svg11.dtd">
<svg version="1.1" id="Layer_1" xmlns="http://www.w3.org/2000/svg" xmlns:xlink="http://www.w3.org/1999/xlink" x="0px" y="0px"
	 viewBox="0 0 100 100" style="enable-background:new 0 0 100 100;" xml:space="preserve">
<g>
	<g>
		<defs>
			<rect id="SVGID_2_" x="4.5" y="1.8" width="91" height="96.3"/>
		</defs>
		<clipPath id="SVGID_3_">
			<use xlink:href="#SVGID_2_"  style="overflow:visible;"/>
		</clipPath>
		<path style="clip-path:url(#SVGID_3_);fill:#BA2730;" d="M49.3,1.8c0.3,0.9,0,2.6,0.2,3.4C59.8,27,70,49.2,80.3,70.8
			c0.7,1.4,1.4,2.9,1.9,4.5c-3.6-0.2-7.4,0-11-0.2c-2.4-5.2-4.5-10.7-7.1-15.9c-4.8,0-10,0.2-14.6,0c0.2,13.1-0.2,24.8,0,37.9
			c0,0.3,0.2,0.9-0.2,1c1.4-0.2,3.6-1.9,5-2.6c8.1-4.5,16.2-9,24.3-13.4c3.3-1.9,6.5-3.4,9.7-5.5c2.6-19.8,5-39.5,7.4-59.5
			C80.2,12.3,64.6,6.8,49.3,1.8"/>
	</g>
	<g>
		<defs>
			<rect id="SVGID_4_" x="4.5" y="1.8" width="91" height="96.3"/>
		</defs>
		<clipPath id="SVGID_5_">
			<use xlink:href="#SVGID_4_"  style="overflow:visible;"/>
		</clipPath>
		<path style="clip-path:url(#SVGID_5_);fill:#BA2730;" d="M49.5,49.6L49.5,49.6L60,49.7c-0.3-1-0.7-1.9-1.2-2.8
			c-3.1-6.2-6-12.9-9.3-19.1c0,0,0,0,0,0.2C49.3,35.3,49.5,41.6,49.5,49.6L49.5,49.6"/>
	</g>
	<g>
		<defs>
			<rect id="SVGID_6_" x="4.5" y="1.8" width="91" height="96.3"/>
		</defs>
		<clipPath id="SVGID_7_">
			<use xlink:href="#SVGID_6_"  style="overflow:visible;"/>
		</clipPath>
		<path style="clip-path:url(#SVGID_7_);fill:#E82734;" d="M49.3,28c-3.1,7.2-6,14.3-9.1,21.5c2.9,0.2,6.2,0,9.1,0v-0.2
			c0,0,0-0.2,0,0C49.5,41.6,49.3,35.3,49.3,28L49.3,28L49.3,28z"/>
	</g>
	<g>
		<defs>
			<rect id="SVGID_8_" x="4.5" y="1.8" width="91" height="96.3"/>
		</defs>
		<clipPath id="SVGID_9_">
			<use xlink:href="#SVGID_8_"  style="overflow:visible;"/>
		</clipPath>
		<path style="clip-path:url(#SVGID_9_);fill:#E82734;" d="M49.5,97.3c-0.2-13.3,0-25,0-37.9c-4.3-0.2-8.8,0-13.3,0
			c-2.2,5.2-4.1,10.5-6.4,15.7c-3.8,0.2-7.8,0.2-11.7,0.2C28.5,52,38.8,28.7,49.5,5.4c-0.2-1,0.2-2.8-0.2-3.6
			C34.3,7,19.5,12.5,4.5,17.7c2.2,19.8,4.7,39.6,6.9,59.5c12.6,7.1,25.2,14.1,37.9,21C49.7,98,49.5,97.5,49.5,97.3L49.5,97.3z"/>
	</g>
	<g>
		<defs>
			<rect id="SVGID_10_" x="4.5" y="1.8" width="91" height="96.3"/>
		</defs>
		<clipPath id="SVGID_11_">
			<use xlink:href="#SVGID_10_"  style="overflow:visible;"/>
		</clipPath>
		<path style="clip-path:url(#SVGID_11_);fill:#B3B3B3;" d="M80.3,70.9C70,49.2,59.8,27.2,49.7,5.4v17.4c0.2,1.6,0.3,3.3,0,4.7v0.2
			v0.5l0,0c3.3,6.2,6,12.9,9.3,19.1c0.5,0.9,0.9,1.7,1.2,2.8H49.7v9.5c4.7,0,9.8,0,14.6,0c2.4,5.2,4.7,10.7,7.1,15.9
			c3.6,0.2,7.4,0,11,0.2C81.7,73.9,81,72.3,80.3,70.9L80.3,70.9z"/>
	</g>
</g>
</svg>
