<svg xmlns="http://www.w3.org/2000/svg" data-name="Layer 1" viewBox="0 0 100 125" x="0px" y="0px" style="enable-background: new 0 0 100 100; fill: whitesmoke"><title>Bubble chart</title><path d="M89.5,90.5H9.5V10a1,1,0,0,1,2,0V88.5h78a1,1,0,0,1,0,2Z"/><path d="M61.5,55A4.5,4.5,0,1,1,66,50.5,4.5,4.5,0,0,1,61.5,55Zm0-7A2.5,2.5,0,1,0,64,50.5,2.5,2.5,0,0,0,61.5,48Z"/><path d="M72.5,30A4.5,4.5,0,1,1,77,25.5,4.5,4.5,0,0,1,72.5,30Zm0-7A2.5,2.5,0,1,0,75,25.5,2.5,2.5,0,0,0,72.5,23Z"/><path d="M42,43A12,12,0,1,1,54,31,12,12,0,0,1,42,43Zm0-22A10,10,0,1,0,52,31,10,10,0,0,0,42,21Z"/><path d="M44,79a9,9,0,1,1,9-9A9,9,0,0,1,44,79Zm0-16a7,7,0,1,0,7,7A7,7,0,0,0,44,63Z"/><path d="M22,69a3,3,0,1,1,3-3A3,3,0,0,1,22,69Zm0-4a1,1,0,1,0,1,1A1,1,0,0,0,22,65Z"/></svg>