<?xml version="1.0" encoding="utf-8"?>
<!-- Generator: Adobe Illustrator 17.1.0, SVG Export Plug-In . SVG Version: 6.00 Build 0)  -->
<!DOCTYPE svg PUBLIC "-//W3C//DTD SVG 1.1//EN" "http://www.w3.org/Graphics/SVG/1.1/DTD/svg11.dtd">
<svg version="1.1" id="Layer_1" xmlns="http://www.w3.org/2000/svg" xmlns:xlink="http://www.w3.org/1999/xlink" x="0px" y="0px"
	 viewBox="0 0 100 100" enable-background="new 0 0 100 100" xml:space="preserve">
<g>
	<path fill="#006533" d="M41.5,19h27l13.6,23.6h15.6C94.2,19.6,74.3,2,50.3,2C44.2,2,38.4,3.1,33,5.2L41.5,19"/>
	<path fill="#82B816" d="M82.8,56.9L68.5,81.7H32.3L14.2,50.4l14.5-25.1l-8-13.1C9.5,21,2.2,34.6,2.2,50c0,26.5,21.5,48,48,48
		c24.2,0,44.2-17.9,47.5-41.2L82.8,56.9"/>
	<path fill="#006532" d="M67.3,49.9c0,9.5-7.7,17.2-17.2,17.2S33,59.3,33,49.9s7.7-17.2,17.2-17.2S67.3,40.4,67.3,49.9"/>
</g>
</svg>
