<?xml version="1.0" encoding="utf-8"?>
<!-- Generator: Adobe Illustrator 17.1.0, SVG Export Plug-In . SVG Version: 6.00 Build 0)  -->
<!DOCTYPE svg PUBLIC "-//W3C//DTD SVG 1.1//EN" "http://www.w3.org/Graphics/SVG/1.1/DTD/svg11.dtd">
<svg version="1.1" id="Layer_1" xmlns="http://www.w3.org/2000/svg" xmlns:xlink="http://www.w3.org/1999/xlink" x="0px" y="0px"
	 viewBox="0 0 100 100" enable-background="new 0 0 100 100" xml:space="preserve">
<g>
	<g>
		<defs>
			<rect id="SVGID_12_" x="6.5" y="1.8" width="84.8" height="96.2"/>
		</defs>
		<clipPath id="SVGID_3_">
			<use xlink:href="#SVGID_12_"  overflow="visible"/>
		</clipPath>
		<path clip-path="url(#SVGID_3_)" fill="#E64C18" d="M6.5,2.3V2c23.7-0.3,49.6-0.2,74.3-0.2c3.6,0,8.4-0.3,10.5,0.3
			c-2.9,28.4-5.2,57.6-7.9,86.2C71.9,91.5,60.4,94.6,49,98h-0.5c-11.2-3.4-23.1-6.4-34.4-9.8C11.8,59.5,9.3,30.7,6.5,2.3L6.5,2.3z"
			/>
	</g>
	<g>
		<defs>
			<rect id="SVGID_14_" x="6.5" y="1.8" width="84.8" height="96.2"/>
		</defs>
		<clipPath id="SVGID_5_">
			<use xlink:href="#SVGID_14_"  overflow="visible"/>
		</clipPath>
		<path clip-path="url(#SVGID_5_)" fill="#F36518" d="M49,90.6c9.3-2.6,18.9-5.2,28.2-7.9c2.1-24.8,4.3-49.4,6.5-73.8H49V90.6"/>
	</g>
	<g>
		<defs>
			<rect id="SVGID_16_" x="6.5" y="1.8" width="84.8" height="96.2"/>
		</defs>
		<clipPath id="SVGID_7_">
			<use xlink:href="#SVGID_16_"  overflow="visible"/>
		</clipPath>
		<path clip-path="url(#SVGID_7_)" fill="#FFFFFF" d="M49,20.8C49,20.6,49,20.8,49,20.8H22.3c0.9,10.5,1.9,20.8,2.8,31.3
			c7.6,0.5,5.9,0.2,13.8,0.2h10c4.3,0.2,9.1-0.2,12.9-0.2v0.2c-0.3,4.3-0.9,8.6-1.2,13.1c-3.6,1.4-7.9,2.1-11.7,3.3h-0.2
			c-4-1.2-8.3-1.9-11.9-3.3c-0.2-2.8-0.3-5.5-0.7-8.1H25.4c0.3,5.7,1,10.7,1.4,16.3c7.2,2.1,14.8,4,22,6c0.2,0,0.2,0,0.2-0.2
			c7.4-1.7,14.3-4,21.5-5.7l3.1-31.8H49c-4,0.2-9.8,0-13.8,0c-0.3,0-0.3-0.2-0.3-0.5c-0.3-3.1-0.5-6.4-0.7-10.2h40.4
			c0.2-2.2,0.5-5,0.7-7.6c0-0.9,0.2-1.9,0.2-2.9C66.6,20.8,57.8,20.8,49,20.8L49,20.8z"/>
	</g>
</g>
</svg>
