<?xml version="1.0" encoding="utf-8"?>
<!-- Generator: Adobe Illustrator 17.1.0, SVG Export Plug-In . SVG Version: 6.00 Build 0)  -->
<!DOCTYPE svg PUBLIC "-//W3C//DTD SVG 1.1//EN" "http://www.w3.org/Graphics/SVG/1.1/DTD/svg11.dtd">
<svg version="1.1" id="Layer_1" xmlns="http://www.w3.org/2000/svg" xmlns:xlink="http://www.w3.org/1999/xlink" x="0px" y="0px"
	 viewBox="0 0 100 100" enable-background="new 0 0 100 100" xml:space="preserve">
<g>
	<g>
		<defs>
			<rect id="SVGID_18_" x="8.2" y="1.8" width="84.8" height="96.4"/>
		</defs>
		<clipPath id="SVGID_3_">
			<use xlink:href="#SVGID_18_"  overflow="visible"/>
		</clipPath>
		<path clip-path="url(#SVGID_3_)" fill="#61AA01" d="M50.2,98.2c-3.2-1.2-6.5-2-9.7-2.9c-7.8-2.2-15.6-4.4-23.6-6.5
			c-0.8-0.2-1.2-0.5-1.2-1.5c-1.4-15-2.7-29.9-4.1-45c-1-12.1-2-24.1-3.1-36.2c0-1-0.2-2-0.3-3.1s0.3-1.2,1.2-1.2
			c27.4,0,54.9,0,82.4,0C93,1.8,93,2.1,93,3.2c-0.8,9.3-1.7,18.9-2.5,28.2c-0.8,10-1.9,20.2-2.7,30.3c-0.7,8.2-1.4,16.3-2.2,24.5
			c0,0.2,0,0.3,0,0.5c0,1.4-0.5,1.9-1.9,2.2c-10.7,2.9-21.4,5.9-32.1,8.8c-0.2,0-0.3,0.2-0.5,0.3L50.2,98.2L50.2,98.2z M50.4,30
			c0,12.7,0,25.7,0,38.4c-3.9-0.7-7.5-2-11.4-2.9c-0.5-0.2-0.5-0.5-0.5-1c-0.2-2.2-0.3-4.4-0.5-6.6c0-0.7-0.2-1.2-1.2-1.2
			c-2.9,0-5.8,0-8.7,0c-0.8,0-1,0.3-0.8,1c0.5,4.9,0.8,9.9,1.2,15c0,0.7,0.3,1,0.8,1.2c1.7,0.5,3.4,0.8,5.3,1.4
			c5.3,1.5,10.5,2.9,15.8,4.4c0,3.1,0,6.3,0,9.3c0,1.2,0.3,1.5,1.4,1.2c8.7-2.4,17.3-4.8,26.2-7.1c0.5-0.2,0.8-0.3,0.8-0.8
			c0-2.9,0.7-5.8,0.7-8.5c0.2-3.4,0.7-6.8,0.8-10.2c0.3-4.2,1-8.5,1.2-12.9c0.2-3.7,0.7-7.3,0.8-11c0.5-5.3,0.8-10.5,1.4-15.6
			c0.5-4.6,0.7-9.2,1.4-13.8c0.2-0.8,0-1.4-1.2-1.4c-10.9,0-21.8,0-32.5,0c-0.8,0-1.2,0.2-1.2,1.2c0,3.1,0,6.3,0,9.3
			c-0.5,0-1,0-1.5,0c-8,0-16,0-23.8,0c-0.8,0-1.4,0.2-1.2,1.2c0.3,2.7,0.5,5.6,0.7,8.3c0,0.8,0.3,1.2,1.2,1.2c4.1,0,8.3,0,12.4,0
			C42.2,30,46.3,30,50.4,30L50.4,30z"/>
	</g>
	<g>
		<defs>
			<rect id="SVGID_20_" x="8.2" y="1.8" width="84.8" height="96.4"/>
		</defs>
		<clipPath id="SVGID_5_">
			<use xlink:href="#SVGID_20_"  overflow="visible"/>
		</clipPath>
		<path clip-path="url(#SVGID_5_)" fill="#87D000" d="M50.4,19.3c0-3.1,0-6.3,0-9.3c0-0.8,0.3-1.2,1.2-1.2c10.9,0,21.8,0,32.5,0
			c1,0,1.2,0.5,1.2,1.4c-0.7,4.6-0.8,9.2-1.4,13.8c-0.5,5.3-1,10.5-1.5,15.6c-0.3,3.7-0.7,7.3-0.8,11c-0.2,4.2-0.8,8.7-1.2,12.9
			c-0.2,3.4-0.7,6.8-0.8,10.2c-0.2,2.9-0.7,5.6-0.7,8.5c0,0.5-0.3,0.8-0.8,0.8c-8.7,2.4-17.5,4.8-26.2,7.1c-1.2,0.3-1.5,0-1.4-1.2
			c0-3.1,0-6.3,0-9.3v-0.2c6.3-1.7,12.6-3.4,18.7-5.1c3.2-0.8,3.1-0.8,3.4-4.1c0.7-8.2,1.4-16.1,2.2-24.3c0.8-8.5,1.5-17,2.4-25.5
			c0.2-1-0.2-1.2-1.2-1.2c-4.2,0-8.5,0-12.7,0S54.6,19.5,50.4,19.3L50.4,19.3L50.4,19.3z"/>
	</g>
	<g>
		<defs>
			<rect id="SVGID_22_" x="8.2" y="1.8" width="84.8" height="96.4"/>
		</defs>
		<clipPath id="SVGID_7_">
			<use xlink:href="#SVGID_22_"  overflow="visible"/>
		</clipPath>
		<path clip-path="url(#SVGID_7_)" fill="#88D002" d="M50.4,68.4c0-12.7,0-25.5,0-38.4v-0.2c0.5,0,1,0,1.4,0c4.2,0,8.5,0,12.7,0
			c0.7,0,1,0,1,1c-1,11.2-2.2,22.3-3.2,33.5c0,0.7-0.3,1-1,1.2C57.7,66.6,54.1,67.6,50.4,68.4L50.4,68.4L50.4,68.4z"/>
	</g>
	<g>
		<defs>
			<rect id="SVGID_24_" x="8.2" y="1.8" width="84.8" height="96.4"/>
		</defs>
		<clipPath id="SVGID_9_">
			<use xlink:href="#SVGID_24_"  overflow="visible"/>
		</clipPath>
		<path clip-path="url(#SVGID_9_)" fill="#E9E9E8" d="M50.6,79.6L50.6,79.6l-16-4.2c-1.7-0.5-3.4-1-5.3-1.4
			c-0.7-0.2-0.8-0.5-0.8-1.2c-0.3-4.9-0.7-9.9-1.2-15c0-0.8,0-1,0.8-1c2.9,0,5.8,0,8.7,0c0.8,0,1,0.3,1.2,1.2
			c0.2,2.2,0.3,4.4,0.5,6.6c0,0.5,0,0.8,0.5,1c3.7,0.8,7.5,2,11.4,2.9v0.2C50.4,72.3,50.4,75.9,50.6,79.6L50.6,79.6z M50.4,30
			c-4.1,0-8.3,0-12.4,0s-8.3,0-12.4,0c-0.8,0-1.2-0.3-1.2-1.2c-0.2-2.7-0.3-5.6-0.7-8.3c-0.2-1,0.3-1.2,1.2-1.2c8,0,16,0,23.8,0
			c0.5,0,1,0,1.5,0v0.2C50.4,22.9,50.4,26.4,50.4,30L50.4,30L50.4,30z"/>
	</g>
	<g>
		<defs>
			<rect id="SVGID_26_" x="8.2" y="1.8" width="84.8" height="96.4"/>
		</defs>
		<clipPath id="SVGID_11_">
			<use xlink:href="#SVGID_26_"  overflow="visible"/>
		</clipPath>
		<path clip-path="url(#SVGID_11_)" fill="#FDFEFD" d="M50.4,29.8c0-3.6,0-7,0-10.5c4.2,0,8.5,0,12.7,0s8.5,0,12.7,0
			c1,0,1.2,0.2,1.2,1.2c-0.8,8.5-1.5,17-2.4,25.5c-0.7,8.2-1.5,16.1-2.2,24.3c-0.3,3.2-0.2,3.2-3.4,4.1c-6.3,1.7-12.6,3.4-18.7,5.1
			v-11c3.6-1,7.3-2,10.9-2.9c0.7-0.2,0.8-0.5,1-1.2c1-11.2,2-22.3,3.2-33.5c0.2-0.8-0.2-1-1-1c-4.2,0-8.5,0-12.7,0
			C51.4,30,50.9,29.8,50.4,29.8L50.4,29.8z"/>
	</g>
</g>
</svg>
