<svg xmlns="http://www.w3.org/2000/svg" xmlns:xlink="http://www.w3.org/1999/xlink" xmlns:a="http://ns.adobe.com/AdobeSVGViewerExtensions/3.0/" version="1.1" x="0px" y="0px" viewBox="11.055 32.303 40 50" enable-background="new 11.055 32.303 40 40" xml:space="preserve"><path display="none" d="M9.771,0C7.082,0,4.766,0.958,2.875,2.875C0.958,4.765,0,7.082,0,9.77c0,2.13,0.612,4.393,1.864,6.789  c3.594,5.75,8.466,10.915,14.589,15.467c0.719,0.506,1.411,1.039,2.129,1.544c0.187,0.133,0.399,0.266,0.612,0.426  c0.24-0.16,0.453-0.293,0.639-0.426c0.399-0.293,0.772-0.559,1.118-0.772c6.602-4.765,11.793-10.169,15.6-16.239  c1.251-2.396,1.864-4.659,1.864-6.789c0-2.688-0.959-5.005-2.875-6.895C33.65,0.958,31.334,0,28.646,0  c-2.689,0-5.005,0.958-6.949,2.875c-1.198,1.225-2.05,2.609-2.502,4.153c-0.453-1.544-1.278-2.929-2.502-4.153  C14.775,0.958,12.459,0,9.771,0L9.771,0z M11.181,11.847c-0.585-0.878-0.878-1.81-0.878-2.849c0-0.186,0-0.346,0.027-0.506h18.103  c0.027,0.16,0.027,0.32,0.027,0.506c0,1.039-0.293,1.97-0.878,2.849c-0.426,0.612-1.012,1.171-1.757,1.704  c-1.464,1.038-3.194,1.65-5.191,1.837v2.981c1.97,0.187,3.674,0.825,5.112,1.863c0.745,0.506,1.331,1.092,1.784,1.704  c0.585,0.852,0.878,1.81,0.878,2.849c0,0.16,0,0.319-0.027,0.506H10.276c-0.027-0.187-0.027-0.346-0.027-0.506  c0-1.039,0.293-1.997,0.878-2.849c0.426-0.612,1.012-1.198,1.757-1.704c1.411-1.011,3.062-1.624,4.952-1.81v-3.062  c-1.864-0.187-3.488-0.799-4.872-1.81C12.22,13.018,11.634,12.459,11.181,11.847L11.181,11.847z"/><path d="M49.846,44.291c0-0.028,0-0.054,0-0.081h-7.611v4.373h7.314c0-0.028,0-0.081,0.026-0.135  c0.243-0.944,0.351-1.889,0.351-2.835C49.926,45.154,49.9,44.722,49.846,44.291L49.846,44.291z"/><path d="M49.603,43.129c-0.405-1.538-1.215-2.915-2.43-4.13c-1.755-1.781-3.888-2.699-6.396-2.753c-0.081,0-0.136,0-0.217,0h-0.08  c-0.081,0-0.136,0-0.19,0c-2.483,0.082-4.615,0.998-6.396,2.753h0.026c-1.08,1.107-1.862,2.322-2.322,3.698  c-0.026,0.108-0.08,0.216-0.107,0.324c-0.028,0.028-0.028,0.082-0.054,0.108H49.603L49.603,43.129z"/><path d="M47.659,52.928c0.135-0.243,0.296-0.486,0.459-0.729c0.459-0.864,0.81-1.7,1.106-2.538h-1.565V52.928L47.659,52.928z"/><polygon points="46.579,54.035 46.579,49.662 36.97,49.662 36.97,54.035 46.579,54.035 "/><path d="M42.988,59.11l-0.025,0.026c1.16-1.323,2.239-2.646,3.238-4.022h-3.967v4.373h0.403  C42.747,59.353,42.854,59.244,42.988,59.11L42.988,59.11z"/><path d="M21.638,36.246c-0.081,0-0.136,0-0.216,0c-2.592,0-4.805,0.917-6.614,2.753c-1.214,1.215-2.024,2.592-2.429,4.13h18.167  c-0.028-0.026-0.055-0.08-0.082-0.134c-0.432-1.484-1.242-2.835-2.402-3.996C26.28,37.218,24.147,36.3,21.638,36.246L21.638,36.246z  "/><polygon points="30.626,48.582 30.626,44.209 21.016,44.209 21.016,48.582 30.626,48.582 "/><polygon points="31.706,44.209 31.706,48.582 41.153,48.582 41.153,44.209 31.706,44.209 "/><path d="M12.055,45.612c0,0.946,0.135,1.944,0.405,2.97h7.477v-4.373h-7.774C12.082,44.668,12.055,45.126,12.055,45.612  L12.055,45.612z"/><path d="M19.937,55.114h-4.103c1.107,1.484,2.295,2.942,3.563,4.373h0.54V55.114L19.937,55.114z"/><polygon points="15.752,49.662 15.752,54.035 25.363,54.035 25.363,49.662 15.752,49.662 "/><path d="M13.891,52.254c0.243,0.404,0.513,0.809,0.782,1.214v-3.806h-1.889C13.081,50.499,13.431,51.363,13.891,52.254  L13.891,52.254z"/><polygon points="21.016,55.114 21.016,59.487 30.627,59.487 30.627,55.114 21.016,55.114 "/><polygon points="35.89,54.035 35.89,49.662 26.442,49.662 26.442,54.035 35.89,54.035 "/><polygon points="41.153,59.487 41.153,55.114 31.706,55.114 31.706,59.487 41.153,59.487 "/><path d="M41.64,60.567h-4.67v4.373h0.054c0.135-0.135,0.297-0.271,0.46-0.405C38.967,63.267,40.344,61.943,41.64,60.567  L41.64,60.567z"/><path d="M28.521,67.747c0.702,0.514,1.403,1.026,2.105,1.539V66.02h-4.318C27.036,66.613,27.765,67.181,28.521,67.747L28.521,67.747  z"/><path d="M25.011,64.94h0.352v-4.373h-4.967C21.826,62.078,23.365,63.536,25.011,64.94L25.011,64.94z"/><path d="M31.706,66.02v2.996c0.243-0.188,0.513-0.351,0.756-0.485c0-0.027,0-0.027,0.026-0.027c1.107-0.81,2.187-1.646,3.24-2.483  H31.706L31.706,66.02z"/><polygon points="35.89,60.567 26.442,60.567 26.442,64.94 35.89,64.94 35.89,60.567 "/><text x="11.055" y="87.303" fill="#000000" font-size="5px" font-weight="bold" font-family="'Helvetica Neue', Helvetica, Arial-Unicode, Arial, Sans-serif">Created by N.K.Narasimhan</text><text x="11.055" y="92.303" fill="#000000" font-size="5px" font-weight="bold" font-family="'Helvetica Neue', Helvetica, Arial-Unicode, Arial, Sans-serif">from the Noun Project</text></svg>