<?xml version="1.0" encoding="utf-8"?>
<!-- Generator: Adobe Illustrator 17.1.0, SVG Export Plug-In . SVG Version: 6.00 Build 0)  -->
<!DOCTYPE svg PUBLIC "-//W3C//DTD SVG 1.1//EN" "http://www.w3.org/Graphics/SVG/1.1/DTD/svg11.dtd">
<svg version="1.1" id="Layer_1" xmlns="http://www.w3.org/2000/svg" xmlns:xlink="http://www.w3.org/1999/xlink" x="0px" y="0px"
	 viewBox="0 0 100 100" enable-background="new 0 0 100 100" xml:space="preserve">
<g id="LOGOO">
	<polyline id="LOGObackground" fill="#252C30" points="6.8,10.3 21.3,13 31.4,2 70.5,2 80.9,13 95.3,10.3 85.5,38.1 81.1,72.6 
		60.1,98 41.5,98 20.3,72.6 16.1,38.4 	"/>
	<g id="grayArea">
		<polygon fill="#879496" points="44.9,45.6 20.9,36.6 17.2,21.2 36.3,25 		"/>
		<polygon fill="#879496" points="56.7,45.6 80.7,36.6 84.4,21.2 65.3,25 		"/>
		<polygon fill="#879496" points="37,23.6 24.9,21.2 33.1,10.3 43.5,10.3 		"/>
		<polygon fill="#879496" points="64.4,23.6 76.6,21.2 68.3,10.3 57.9,10.3 		"/>
		<polygon fill="#879496" points="63,26.4 54.4,48.9 57,65.9 44.2,65.9 47.1,48.9 38.5,26.4 44.1,10.3 57.3,10.3 		"/>
		<polygon fill="#879496" points="26.8,47.8 35.2,52.4 35.2,70.3 21.3,58.4 21.3,38.4 26.8,40.6 		"/>
		<polygon fill="#879496" points="74.6,47.8 66.1,52.4 66.1,70.3 80,58.4 80,38.4 74.6,40.6 		"/>
		<polygon fill="#879496" points="59.8,45.9 56.7,47.5 56.7,50.6 58.6,67 54.4,71.3 50.7,71.4 47,71.3 42.8,67 44.8,50.6 44.8,47.5 
			41.6,45.9 37.3,53.2 37.3,79.8 41.8,75.7 50.7,75.6 59.7,75.7 64.2,79.8 64.2,53.2 		"/>
		<polygon fill="#879496" points="56.6,89.4 44.8,89.4 40.7,85.1 44.8,80.9 56.6,80.9 60.8,85.1 		"/>
		<polygon opacity="0.5" fill="#879496" enable-background="new    " points="35.2,80.9 27.5,72.3 27.5,66.5 35.2,71.5 		"/>
		<polygon opacity="0.5" fill="#879496" enable-background="new    " points="65.9,80.9 73.6,72.3 73.6,66.5 65.9,71.5 		"/>
		<polygon opacity="0.5" fill="#879496" enable-background="new    " points="58.7,79.8 42.8,79.8 39.6,84.2 37.3,83 42.7,77.5 
			58.8,77.5 64.2,83 61.9,84.2 		"/>
	</g>
</g>
</svg>
