<svg xmlns:x="http://ns.adobe.com/Extensibility/1.0/" xmlns:i="http://ns.adobe.com/AdobeIllustrator/10.0/" xmlns:graph="http://ns.adobe.com/Graphs/1.0/" xmlns="http://www.w3.org/2000/svg" xmlns:xlink="http://www.w3.org/1999/xlink" version="1.1" x="0px" y="0px" viewBox="0 0 64 80" style="enable-background: new 0 0 100 100; fill: white;padding-top: 6px;
" xml:space="preserve"><metadata><sfw xmlns="http://ns.adobe.com/SaveForWeb/1.0/"><slices/><sliceSourceBounds y="-8160" x="-8165" width="16389" height="16384" bottomLeftOrigin="true"/></sfw></metadata><g><g><path d="M56,9.5H8c-0.276,0-0.5,0.224-0.5,0.5v36c0,0.276,0.224,0.5,0.5,0.5h23.5v7H22c-0.276,0-0.5,0.224-0.5,0.5    s0.224,0.5,0.5,0.5h20c0.276,0,0.5-0.224,0.5-0.5s-0.224-0.5-0.5-0.5h-9.5v-7H56c0.276,0,0.5-0.224,0.5-0.5V10    C56.5,9.724,56.276,9.5,56,9.5z M55.5,45.5h-47v-35h47V45.5z"/><path d="M23.646,32.354C23.744,32.451,23.872,32.5,24,32.5s0.256-0.049,0.354-0.146c0.195-0.195,0.195-0.512,0-0.707L20.707,28    l3.646-3.646c0.195-0.195,0.195-0.512,0-0.707s-0.512-0.195-0.707,0l-4,4c-0.195,0.195-0.195,0.512,0,0.707L23.646,32.354z"/><path d="M39.646,32.354C39.744,32.451,39.872,32.5,40,32.5s0.256-0.049,0.354-0.146l4-4c0.195-0.195,0.195-0.512,0-0.707l-4-4    c-0.195-0.195-0.512-0.195-0.707,0s-0.195,0.512,0,0.707L43.293,28l-3.646,3.646C39.451,31.842,39.451,32.158,39.646,32.354z"/><path d="M29.879,36.485C29.919,36.495,29.96,36.5,30,36.5c0.224,0,0.428-0.151,0.484-0.379l4-16    c0.066-0.268-0.096-0.539-0.364-0.606c-0.273-0.068-0.54,0.095-0.606,0.364l-4,16C29.448,36.146,29.611,36.418,29.879,36.485z"/></g></g></svg>