<?xml version="1.0" encoding="utf-8"?>
<!-- Generator: Adobe Illustrator 17.1.0, SVG Export Plug-In . SVG Version: 6.00 Build 0)  -->
<!DOCTYPE svg PUBLIC "-//W3C//DTD SVG 1.1//EN" "http://www.w3.org/Graphics/SVG/1.1/DTD/svg11.dtd">
<svg version="1.1" id="Layer_1" xmlns="http://www.w3.org/2000/svg" xmlns:xlink="http://www.w3.org/1999/xlink" x="0px" y="0px"
	 viewBox="0 0 100 100" enable-background="new 0 0 100 100" xml:space="preserve">
<g>
	<g>
		<path id="XMLID_25_" fill="#C1CC23" d="M57.8,40c-1.1-0.7-1.6-1.6-2.1-2.7c-0.5-1.2-0.6-2.5-0.4-3.8c0.2-2.5,1.3-4.5,3-6.2
			c1.6-1.5,3.4-2.4,5.4-2.8c1.6-0.3,3-0.3,4.6-0.3c0.7,0.1,1.4,0.1,2.2,0.1c0.9,0,1.7,0.1,2.6,0c2.3-0.1,4.4-0.6,6.5-1.4
			c2.3-1,4.4-2.4,6.1-4.3c0.6-0.6,1.1-1.3,1.5-2c0.1,0.2,0.1,0.3,0.1,0.4c0.1,0.2,0.1,0.3,0.1,0.4c0.4,1.6,0.7,3.3,1,5
			c0.2,1.2,0.3,2.5,0.4,3.8c0.1,1.1,0.1,2.2,0.1,3.3c-0.1,2.2-0.3,4.4-1.1,6.5c-0.6,1.6-1.4,3.2-2.7,4.4c-1.4,1.5-3,2.4-5,2.9
			c-1.1,0.3-2.2,0.4-3.4,0.6c-1.4,0.1-2.8,0.1-4.2,0c-1.3-0.1-2.6-0.2-3.9-0.3c-1.8-0.2-3.5-0.3-5.3-0.3c-0.9,0-1.8,0.1-2.8,0.3
			c-0.1,0-0.1,0-0.2,0c0.1-0.1,0.1-0.1,0.2-0.1c1.1-0.3,2.1-0.7,3.2-0.8c1.4-0.3,2.9-0.6,4.3-0.9c1.7-0.3,3.4-0.9,5-1.8
			c2-1.1,3.9-2.5,5.6-4c0.9-0.8,1.6-1.6,2.5-2.7c1.4-1.7,2.5-3.6,3.2-5.6c0.1-0.2,0.2-0.6,0.2-0.8v-0.1l0,0v0.1
			c0,0.1-0.1,0.1-0.1,0.1c-0.9,1.8-2,3.4-3.5,4.9c-0.7,0.7-1.6,1.4-2.3,2c-2.2,1.6-4.5,3-7.1,4c-1.4,0.6-2.9,0.8-4.4,1.1
			c-1.1,0.2-2.3,0.2-3.4,0.3c-0.7,0.1-1.3,0.1-2,0.2c-1,0.1-2,0.2-2.9,0.3C58.4,39.8,58.1,39.9,57.8,40z"/>
		<path id="XMLID_24_" fill="#387C2C" d="M84.6,26.9c-0.1,0.3-0.2,0.6-0.2,0.8c-0.7,2-1.8,3.9-3.2,5.6c-0.7,0.9-1.6,1.8-2.5,2.7
			c-1.6,1.6-3.5,2.9-5.6,4c-1.6,0.8-3.3,1.4-5,1.8c-1.4,0.3-2.9,0.6-4.3,0.9c-1.1,0.2-2.2,0.5-3.2,0.8c-0.1,0-0.2,0-0.2,0.1
			c-0.2,0.1-0.4,0.2-0.7,0.2c-0.5,0.2-0.9,0.4-1.3,0.7c0,0,0,0-0.1-0.1c0.3-0.4,0.6-0.8,0.7-1.3c0.2-1.3-0.2-2.3-1.1-3.2
			c-0.1,0-0.1-0.1-0.1-0.1c0.3-0.1,0.7-0.1,1-0.2c1-0.2,2-0.2,2.9-0.3c0.7-0.1,1.3-0.1,2-0.2c1.1-0.1,2.3-0.2,3.4-0.3
			c1.6-0.2,2.9-0.6,4.4-1.1c2.6-0.9,5-2.3,7.1-4c0.8-0.7,1.6-1.3,2.3-2C82.5,30.4,83.7,28.7,84.6,26.9
			C84.5,26.9,84.5,26.9,84.6,26.9L84.6,26.9z"/>
		<path id="XMLID_23_" fill="#387C2C" d="M57.2,42.6c0,1.2-1.1,2.3-2.3,2.3c-1.3,0-2.3-1.1-2.3-2.3s1.1-2.3,2.3-2.3
			C56.2,40.4,57.2,41.4,57.2,42.6z"/>
	</g>
	<g>
		<path fill="#387B2C" d="M94,51.3c0-0.6,0-0.9,0-1.2c0.1-1.2,1-2,2.1-2c1.2-0.1,2,0.7,2.3,2c0.1,0.3,0.1,0.7,0.1,1
			c0,4.3,0,8.5,0,12.8c0,1.1-0.1,2.3-0.4,3.4c-0.9,3.7-3.4,5.9-7.6,6.4c-3.4,0.4-6.6,0-9.7-1.5c-1.3-0.7-1.8-1.6-1.2-2.7
			c0.6-1.1,1.6-1.3,2.8-0.7c2.5,1.3,5.3,1.8,8.1,1c2.1-0.6,3.4-2.3,3.4-4.7c-0.4,0.4-0.7,0.8-1.1,1.1c-4.2,3.7-10.6,2.3-13.2-2.8
			c-2.1-4-1.3-9.8,1.7-12.8c3.2-3,8.8-3.7,12.1,0.3C93.5,50.8,93.7,51,94,51.3z M94.1,57.9c0.1-0.5-0.1-1.1-0.2-1.6
			c-0.6-2.5-2.5-4.1-4.8-4.4c-2.2-0.2-4.3,0.9-5.3,2.9c-1.1,2.1-1.1,4.3,0,6.5c0.7,1.4,1.8,2.3,3.3,2.7
			C90.7,64.9,94.1,62.1,94.1,57.9z"/>
		<path fill="#387B2C" d="M22.5,64.8c0,2.3,0,4.4,0,6.5c0,1.3-0.8,2.2-2,2.3C19,73.7,18,72.9,18,71.4c0-7,0-14.1,0-21.2
			c0-1.4,0.9-2.3,2.2-2.3s2.2,0.9,2.3,2.3c0,0.3,0,0.6,0,0.9c0.2-0.1,0.2-0.1,0.3-0.2c3.7-5,11.4-3.8,14.1,2c1.6,3.4,1.6,7-0.2,10.5
			c-2.4,4.5-8.3,6.1-12.3,3.2C23.8,66.1,23.2,65.5,22.5,64.8z M27.7,64.2c1.8,0.1,3-0.6,4.2-1.6c2-2.2,2.2-6.1,0.3-8.7
			c-1.8-2.3-4.9-2.8-7.3-1.1c-1.6,1.1-2.4,2.9-2.5,4.7C22,61.1,24.7,64.2,27.7,64.2z"/>
		<path id="XMLID_18_" fill="#387B2C" d="M64.1,50.7c0.1-0.1,0.2-0.2,0.3-0.3c2.1-2.5,4.8-2.9,7.8-2.1c2.8,0.7,4.5,3.2,4.7,6.5
			c0.1,3.7,0.1,7.4,0,11c0,1.3-0.9,2.2-2.2,2.2c-1.3,0-2.2-0.9-2.2-2.3c0-2.9,0-5.8,0-8.7c0-0.5-0.1-1.1-0.1-1.6
			c-0.4-2.5-1.9-3.5-4.3-3.4c-2.1,0.1-3.8,1.6-4,3.8c-0.2,2.3-0.1,4.6-0.1,6.9c0,1,0,2,0,3c-0.1,1.4-0.9,2.3-2.2,2.3
			c-1.3,0-2.2-0.9-2.2-2.3c0-5.1,0-10.1,0-15.2c0-1.4,0.8-2.4,2-2.5c1.3-0.1,2.2,0.8,2.4,2.3C63.9,50.4,63.9,50.6,64.1,50.7z"/>
		<path id="XMLID_17_" fill="#387B2C" d="M9,68c-2.6,0-5-0.8-7.2-2.2c-0.9-0.7-1.2-1.7-0.7-2.6c0.6-0.8,1.6-1.1,2.5-0.5
			c1.4,0.9,2.9,1.6,4.7,1.8c0.8,0.1,1.6,0.1,2.5-0.2c0.7-0.3,1.1-0.7,1.3-1.6c0.1-0.8-0.3-1.3-1-1.7c-1.1-0.6-2.2-0.9-3.4-1.2
			c-1.1-0.3-2-0.7-3-1.1c-1.8-0.9-2.9-2.3-3-4.4c-0.1-2.3,0.8-4,2.8-5.2c2-1.1,4.3-1.1,6.6-0.7c1.2,0.2,2.5,0.7,3.5,1.3
			c1.1,0.6,1.4,1.6,0.9,2.5C15.2,53.1,14,53.5,13,53c-1.2-0.6-2.5-1.1-3.8-1.3c-0.2-0.1-0.4-0.1-0.7-0.1c-1.4,0-2.5,0.7-2.7,1.6
			c-0.2,0.9,0.4,1.6,1.9,2.2c0.9,0.3,1.9,0.7,2.8,1c0.7,0.2,1.4,0.5,2,0.8c2.9,1.3,3.8,2.9,3.5,5.8c-0.3,2.5-2,4.3-4.8,4.9
			C10.7,67.9,9.9,68,9,68z"/>
		<path id="XMLID_16_" fill="#387B2C" d="M44.3,50.5c1-1.3,2.3-2,3.8-2.5c0.9-0.2,1.8-0.2,2.5,0.7c0.6,0.7,0.7,1.4,0.4,2.3
			c-0.2,0.8-0.8,1.2-1.6,1.4c-3.5,0.6-5.3,3.8-5.3,6.9c0.1,2,0,3.8,0,5.7c0,0.4-0.1,0.8-0.1,1.2c-0.2,1-0.9,1.6-2,1.8
			c-1.1,0.1-2-0.4-2.4-1.4c-0.2-0.6-0.2-1.2-0.2-1.8c0-4.7,0-9.4,0-14.1c0-1.6,0.8-2.6,2.2-2.7c1.1-0.1,2,0.7,2.3,1.7
			C44.1,50,44,50.3,44.3,50.5z"/>
		<path id="XMLID_15_" fill="#387B2C" d="M57.3,58c0,2.5,0,4.9,0,7.4c0,1.6-0.8,2.5-2.3,2.5c-1.4,0-2.2-0.9-2.2-2.5
			c0-4.9,0-9.9,0-14.8c0-1.6,0.8-2.5,2.2-2.5c1.4-0.1,2.3,0.9,2.3,2.5C57.3,53,57.3,55.6,57.3,58z"/>
		<path id="XMLID_14_" fill="#387B2C" d="M57.2,42.7c0,1.3-0.9,2.2-2.3,2.2c-1.2,0-2.2-1-2.2-2.2s1.1-2.3,2.3-2.3
			C56.3,40.4,57.3,41.4,57.2,42.7z"/>
	</g>
</g>
</svg>
